<?xml version="1.0" encoding="UTF-8" standalone="no"?>
<!DOCTYPE svg PUBLIC "-//W3C//DTD SVG 1.1//EN" "http://www.w3.org/Graphics/SVG/1.1/DTD/svg11.dtd">
<svg width="100%" height="100%" viewBox="0 0 2616 1544" version="1.1" xmlns="http://www.w3.org/2000/svg" xmlns:xlink="http://www.w3.org/1999/xlink" xml:space="preserve" xmlns:serif="http://www.serif.com/" style="fill-rule:evenodd;clip-rule:evenodd;stroke-linejoin:round;stroke-miterlimit:2;">
    <g transform="matrix(1,0,0,1,-692.312,-2828.08)">
        <g id="Layer4">
            <g transform="matrix(1,0,0,1,-1599.84,0)">
                <path d="M2336.32,4327.75L2336.32,4029.91C2336.32,4029.91 2404.57,3993.54 2404.57,3993.54C2404.57,3993.54 2404.57,4226.36 2404.57,4226.36C2404.57,4243.54 2411.12,4255.61 2419.72,4264.2C2428.31,4272.8 2440.38,4279.34 2457.56,4279.34C2457.73,4279.34 2457.9,4279.34 2458.06,4279.34C2458.06,4279.34 2644.29,4277.22 2651.91,4277.14C2731.01,4277.07 2794.3,4246.29 2841.96,4185.14C2886.07,4128.55 2910.28,4052.38 2911.94,3955.84C2911.94,3955.59 2911.95,3955.34 2911.95,3955.08L2911.95,3723.15L2982.41,3685.6L2982.41,3961.7C2982.41,4074.06 2953.28,4164.05 2892.47,4230.8C2833.07,4296.02 2753.29,4327.75 2653.85,4327.75L2336.32,4327.75ZM2336.32,2872.25L2653.85,2872.25C2753.29,2872.25 2833.07,2903.98 2892.47,2969.2C2953.28,3035.95 2982.41,3125.94 2982.41,3238.3L2982.41,3442.76C2982.41,3442.76 2911.95,3486.7 2911.95,3486.7C2911.95,3486.7 2911.95,3244.92 2911.95,3244.92C2911.95,3146.65 2888.83,3069.61 2845.52,3012.98C2798.78,2951.85 2734.35,2920.66 2651.64,2920.66L2457.56,2920.66C2440.38,2920.66 2428.31,2927.2 2419.72,2935.8C2411.12,2944.39 2404.57,2956.46 2404.57,2973.64L2404.57,3803.08L2336.32,3845.65L2336.32,2872.25Z" style="fill-rule:nonzero;"/>
                <path d="M3966.05,4327.75L3762.04,4327.75L3784.81,4279.34L3966.05,4279.34L3966.05,4327.75ZM3361.86,4327.75L3361.86,3587.97L3430.12,3644.12C3430.12,3644.12 3430.12,4226.36 3430.12,4226.36C3430.12,4243.54 3436.67,4255.61 3445.26,4264.2C3453.86,4272.8 3465.92,4279.34 3483.11,4279.34L3562.92,4279.34C3562.92,4279.34 3543.99,4327.75 3543.99,4327.75L3361.86,4327.75ZM3430.12,2872.25L3430.12,3410.5L3361.86,3346.23L3361.86,2872.25L3430.12,2872.25Z" style="fill-rule:nonzero;"/>
                <path d="M4783.89,4327.75L4747.45,4234.92L4814.98,4244.25L4850.23,4327.75L4783.89,4327.75ZM4850.32,2872.25C4789.32,3017.61 4553.95,3578.5 4553.95,3578.5C4553.52,3579.53 4553.12,3580.57 4552.77,3581.62C4548.2,3595.35 4548.2,3609.07 4552.77,3622.79C4553.13,3623.87 4553.54,3624.95 4553.98,3626C4553.98,3626 4670.12,3901.11 4732.96,4049.96C4732.96,4049.96 4665.26,4025.49 4665.26,4025.49C4665.26,4025.49 4558.94,3754.56 4558.94,3754.56C4549.22,3726.91 4529.72,3719.04 4510.86,3719.04C4492.01,3719.04 4472.51,3726.91 4462.79,3754.58L4237.84,4327.75L4171.34,4327.75C4229.38,4188.88 4445.56,3671.61 4464.3,3626.76C4474.53,3608.92 4474.53,3591.08 4464.3,3573.24C4464.3,3573.25 4311.85,3208.45 4311.85,3208.45L4362.12,3190.16L4462.78,3447.61C4472.5,3475.29 4492,3483.16 4510.86,3483.16C4529.72,3483.16 4549.23,3475.29 4558.95,3447.59L4783.9,2872.25L4850.32,2872.25ZM4237.82,2872.25L4288.8,3002.61L4239.26,3034.76L4171.35,2872.25L4237.82,2872.25Z" style="fill-rule:nonzero;"/>
            </g>
        </g>
    </g>
</svg>
